<svg width="20" height="20" viewBox="0 0 20 20" fill="none" xmlns="http://www.w3.org/2000/svg">
<path opacity="0.4" d="M14.3402 -0.000198364H5.67024C2.28024 -0.000198364 0.000244141 2.3798 0.000244141 5.9198V14.0898C0.000244141 17.6198 2.28024 19.9998 5.67024 19.9998H14.3402C17.7302 19.9998 20.0002 17.6198 20.0002 14.0898V5.9198C20.0002 2.3798 17.7302 -0.000198364 14.3402 -0.000198364Z" fill="#4CAF50"/>
<path d="M8.81344 13.2479C8.58944 13.2479 8.36544 13.1629 8.19444 12.9919L5.82144 10.6189C5.47944 10.2769 5.47944 9.7229 5.82144 9.3819C6.16344 9.0399 6.71644 9.0389 7.05844 9.3809L8.81344 11.1359L12.9414 7.0079C13.2834 6.6659 13.8364 6.6659 14.1784 7.0079C14.5204 7.3499 14.5204 7.9039 14.1784 8.2459L9.43244 12.9919C9.26144 13.1629 9.03744 13.2479 8.81344 13.2479Z" fill="#4CAF50"/>
</svg>
