<svg width="19" height="20" viewBox="0 0 19 20" fill="none" xmlns="http://www.w3.org/2000/svg">
<path opacity="0.4" d="M13.691 0H5.31C2.27 0 0.5 1.78 0.5 4.83V15.16C0.5 18.26 2.27 20 5.31 20H13.691C16.78 20 18.5 18.26 18.5 15.16V4.83C18.5 1.78 16.78 0 13.691 0Z" fill="white"/>
<path fill-rule="evenodd" clip-rule="evenodd" d="M5.57996 4.6499V4.6599C5.14896 4.6599 4.79996 5.0099 4.79996 5.4399C4.79996 5.8699 5.14896 6.2199 5.57996 6.2199H8.56896C8.99996 6.2199 9.34996 5.8699 9.34996 5.4289C9.34996 4.9999 8.99996 4.6499 8.56896 4.6499H5.57996ZM13.42 10.7399H5.57996C5.14896 10.7399 4.79996 10.3899 4.79996 9.9599C4.79996 9.5299 5.14896 9.1789 5.57996 9.1789H13.42C13.85 9.1789 14.2 9.5299 14.2 9.9599C14.2 10.3899 13.85 10.7399 13.42 10.7399ZM13.42 15.3099H5.57996C5.27996 15.3499 4.98996 15.1999 4.82996 14.9499C4.66996 14.6899 4.66996 14.3599 4.82996 14.1099C4.98996 13.8499 5.27996 13.7099 5.57996 13.7399H13.42C13.819 13.7799 14.12 14.1199 14.12 14.5299C14.12 14.9289 13.819 15.2699 13.42 15.3099Z" fill="white"/>
</svg>
