<svg width="21" height="14" viewBox="0 0 21 14" fill="none" xmlns="http://www.w3.org/2000/svg">
<path d="M7.5 8.75C5.16 8.75 0.5 9.92 0.5 12.25V14H14.5V12.25C14.5 9.92 9.84 8.75 7.5 8.75ZM2.84 12C3.68 11.42 5.71 10.75 7.5 10.75C9.29 10.75 11.32 11.42 12.16 12H2.84ZM7.5 7C9.43 7 11 5.43 11 3.5C11 1.57 9.43 0 7.5 0C5.57 0 4 1.57 4 3.5C4 5.43 5.57 7 7.5 7ZM7.5 2C8.33 2 9 2.67 9 3.5C9 4.33 8.33 5 7.5 5C6.67 5 6 4.33 6 3.5C6 2.67 6.67 2 7.5 2ZM14.54 8.81C15.7 9.65 16.5 10.77 16.5 12.25V14H20.5V12.25C20.5 10.23 17 9.08 14.54 8.81ZM13.5 7C15.43 7 17 5.43 17 3.5C17 1.57 15.43 0 13.5 0C12.96 0 12.46 0.13 12 0.35C12.63 1.24 13 2.33 13 3.5C13 4.67 12.63 5.76 12 6.65C12.46 6.87 12.96 7 13.5 7Z" fill="white" fill-opacity="0.7"/>
</svg>
